<svg height="682pt" viewBox="-21 -21 682.6658 682" width="682pt" xmlns="http://www.w3.org/2000/svg"><path d="m93.714844 294.082031c16.597656 11.484375 35.871094 17.46875 55.628906 17.46875 12.566406 0 25.167969-2.421875 36.828125-7.097656 11.171875-4.480469 4.191406-21.886719-6.984375-17.402344-4.941406 1.980469-10.128906 3.472657-15.417969 4.433594-20.859375 3.800781-41.949219-.753906-59.386719-12.820313-17.429687-12.066406-29.125-30.195312-32.917968-51.054687-3.800782-20.859375.757812-41.949219 12.820312-59.378906 12.066406-17.4375 30.195313-29.125 51.054688-32.925781 5.925781-1.074219 11.8125-1.441407 17.589844-1.195313-7.667969 17.636719-8.605469 32.992187-8.550782 39.984375l-10.484375 13.480469c-24.460937 31.445312 21.886719 70.980469 48.980469 41.800781 9.144531-9.851562 23.828125-23.101562 44.03125-33.714844.269531 1.164063.519531 2.335938.738281 3.527344 3.453125 18.964844-.101562 38.5-10.007812 55.007812-6.183594 10.316407 9.875 19.992188 16.078125 9.648438 12.246094-20.414062 16.640625-44.570312 12.371094-68.015625-.488282-2.699219-1.113282-5.355469-1.816407-7.980469 15.984375-6.046875 34.585938-10.070312 55.855469-10.070312 35.847656 0 68.648438 12.347656 97.480469 36.707031 15.757812 13.316406 25.996093 26.800781 30.515625 33.34375-1.84375 4.21875-4.210938 10.609375-5.515625 18.007813-3.226563 18.375 1.464843 34.152343 13.566406 45.617187 4.179687 3.957031 11.238281 3.089844 14.335937-1.734375l18.941407-29.46875 37.328125 8.535156c5.957031 1.363282 11.84375-3.617187 11.445312-9.742187-.964844-15.023438-11.488281-43.988281-43.839844-52.308594-3.414062-15.917969-14.484374-58.421875-41.707031-96.875-6.957031-9.824219-22.320312.917969-15.300781 10.835937 30.992188 43.78125 39.664062 94.949219 39.742188 95.457032.652343 4 3.796874 7.136718 7.804687 7.761718 18.25 2.851563 26.910156 13.957032 31.003906 23.15625l-28.71875-6.5625c-3.847656-.878906-7.835937.753907-9.96875 4.074219l-14.9375 23.230469c-6.234375-16.183594 4.179688-35.066406 4.710938-36.007812 1.667969-2.917969 1.648437-6.503907-.058594-9.402344-.5-.859375-12.636719-21.285156-36.6875-41.765625-31.976563-27.222657-70.0625-41.609375-110.140625-41.609375-67.445312 0-111.019531 36.082031-130.988281 57.589844-11.269531 12.140624-30.640625-4.414063-20.441407-17.527344l12.582032-16.183594c1.480468-1.898438 2.167968-4.289062 1.929687-6.6875-.015625-.191406-1.761719-19.269531 10.171875-41.324219 16.195313-29.941406 50.253906-50.613281 98.5-59.777343 3.453125-.65625 6.246094-3.191407 7.242188-6.554688 5.332031-18.050781 18.597656-32.039062 29.464844-40.980469l.796874 41.996094c.085938 4.699219 3.636719 8.605469 8.300782 9.136719 24.316406 2.796875 46.382812 11.589844 65.574218 26.136718 9.675782 7.332032 20.910157-7.679687 11.328126-14.941406-19.738282-14.960937-42.113282-24.585937-66.609376-28.671875l-.976562-51.757812c-.132812-7.015625-8.1875-11.503907-14.234375-7.839844-31.707031 19.21875-44.691406 42.871094-49.765625 56.132813-55.847656 11.769531-84.945312 36.511718-100.085938 58.402343-10.144531-1.386719-20.554687-1.199219-30.925781.6875-53.234375 9.6875-88.65625 60.878907-78.972656 114.109375 4.695313 25.777344 19.148437 48.195313 40.699219 63.109375zm0 0"/><path d="m548.796875 291.183594c-3.980469-.121094-7.53125 2.246094-8.984375 5.914062-.445312 1.113282-10.675781 27.585938 4.769531 51.40625 4.351563 6.710938 10.980469 11.402344 18.664063 13.199219 2.265625.535156 4.546875.796875 6.804687.796875 5.527344 0 10.917969-1.578125 15.632813-4.632812 6.652344-4.3125 11.148437-11.03125 12.660156-18.921876 1.496094-7.753906-.082031-15.714843-4.4375-22.425781-15.691406-24.203125-43.914062-25.300781-45.109375-25.335937zm31.136719 44.21875c-.542969 2.832031-2.125 5.222656-4.449219 6.726562-2.324219 1.511719-5.152344 1.980469-7.960937 1.320313-2.941407-.6875-5.507813-2.515625-7.210938-5.148438-6.21875-9.589843-5.964844-20.320312-4.84375-27.179687 6.640625 1.699218 16.34375 5.789062 22.707031 15.597656 1.703125 2.628906 2.328125 5.714844 1.757813 8.683594zm0 0"/><path d="m570.644531 253.410156h.070313c16.660156-.019531 30.199218-13.222656 30.179687-29.429687-.011719-7.921875-3.207031-15.351563-9.015625-20.90625-5.6875-5.449219-13.210937-8.453125-21.199218-8.453125-.015626 0-.023438 0-.039063 0-28.84375.035156-45.09375 23.140625-45.769531 24.121094-2.238282 3.246093-2.207032 7.546874.082031 10.757812.691406.976562 17.34375 23.914062 45.691406 23.910156zm.035157-40.039062c3.125 0 6.050781 1.152344 8.230468 3.242187 2.082032 1.992188 3.230469 4.621094 3.234375 7.386719.007813 5.875-5.132812 10.65625-11.457031 10.660156-.011719 0-.023438 0-.039062 0-11.410157 0-20.265626-6.03125-25.414063-10.699218 5.035156-4.648438 13.738281-10.574219 25.429687-10.589844zm0 0"/><path d="m637.925781 381.027344c-1.894531-2.761719-4.9375-4.839844-8.382812-4.839844-23.613281 0-35.890625 14.148438-45.753907 25.523438-9.238281 10.648437-16.53125 19.054687-31.589843 19.054687-15.058594 0-22.355469-8.40625-31.59375-19.054687-9.863281-11.375-22.136719-25.523438-45.75-25.523438s-35.890625 14.148438-45.757813 25.523438c-9.230468 10.648437-16.527344 19.054687-31.585937 19.054687-15.058594 0-22.351563-8.40625-31.585938-19.054687-12.308593-14.191407-25.980469-25.523438-45.753906-25.523438-19.75 0-33.453125 11.347656-45.75 25.523438-8.621094 9.941406-17.488281 19.054687-31.585937 19.054687-14.140626 0-22.941407-9.085937-31.585938-19.054687-9.863281-11.375-22.140625-25.523438-45.753906-25.523438-23.617188 0-35.886719 14.148438-45.75 25.523438-9.238282 10.648437-16.535156 19.054687-31.59375 19.054687-15.050782 0-22.347656-8.40625-31.585938-19.054687-9.855468-11.375-22.132812-25.523438-45.746094-25.523438-6.5-.527344-12.242187 5.082031-10.507812 11.734375 19.527344 75.027344 64.097656 141.613281 125.503906 187.496094 9.640625 7.207031 20.878906-7.800781 11.222656-15.019531-13.8125-10.316407-26.710937-21.75-38.617187-34.132813 17.886719-3.054687 28.214844-14.949219 36.738281-24.773437 9.234375-10.648438 16.527344-19.054688 31.585938-19.054688 15.054687 0 22.347656 8.40625 31.585937 19.054688 9.863281 11.375 22.140625 25.523437 45.753907 25.523437 12.035156 0 12.054687-18.75 0-18.75-15.054688 0-22.347657-8.414063-31.585938-19.058594-9.863281-11.371093-22.140625-25.519531-45.753906-25.519531-23.613282 0-35.886719 14.148438-45.75 25.519531-9.238282 10.644531-16.535156 19.058594-31.585938 19.058594-2.792968 0-5.332031-.292969-7.742187-.863281-26.546875-32.359375-46.820313-69.921875-59.292969-110.429688 7.976562 3.125 13.519531 9.515625 20.03125 17.023438 9.863281 11.371094 22.140625 25.519531 45.753906 25.519531 23.613282 0 35.886719-14.148437 45.75-25.519531 9.234375-10.652344 16.527344-19.058594 31.585938-19.058594 15.054687 0 22.347656 8.40625 31.585937 19.058594 12.3125 14.1875 25.984375 25.519531 45.753907 25.519531 19.75 0 33.457031-11.339844 45.75-25.519531 8.621093-9.941406 17.492187-19.058594 31.585937-19.058594 14.140625 0 22.941406 9.085938 31.589844 19.058594 9.863281 11.371094 22.136719 25.519531 45.75 25.519531s35.886719-14.148437 45.757812-25.519531c9.230469-10.652344 16.527344-19.058594 31.585938-19.058594 15.058593 0 22.351562 8.40625 31.589843 19.058594 9.863282 11.371094 22.140626 25.519531 45.753907 25.519531 23.617187 0 35.890625-14.148437 45.753906-25.519531 6.511719-7.507813 12.058594-13.898438 20.039063-17.019532-17.585938 57.019532-50.902344 108.617188-95.269532 147.667969-9.578125-10.949219-21.753906-23.457031-43.960937-23.457031-23.613281 0-35.890625 14.148438-45.753907 25.519531-9.230468 10.644531-16.53125 19.058594-31.585937 19.058594-12.035156 0-12.054687 18.75 0 18.75 23.613281 0 35.890625-14.148437 45.753906-25.523437 9.238281-10.648438 16.53125-19.054688 31.589844-19.054688 13.90625 0 21.195313 7.179688 29.507813 16.667969-54.511719 42.472656-119.457032 64.90625-188.089844 64.90625-50.683594 0-101.003906-12.792969-145.527344-37-10.574219-5.753907-19.542969 10.71875-8.953125 16.472656 47.257813 25.699219 100.675781 39.277344 154.480469 39.277344 74.167968 0 144.277344-24.65625 202.742187-71.3125 56.585938-45.152344 98.054688-108.949219 116.761719-179.648438.761719-2.878906.109375-5.949219-1.761719-8.273437zm0 0"/><path d="m202.003906 138.402344c-12.0625 0-12.082031 18.742187 0 18.742187 12.0625 0 12.082032-18.742187 0-18.742187zm0 0"/></svg>